<?xml version="1.0" encoding="UTF-8" standalone="no"?><!DOCTYPE svg PUBLIC "-//W3C//DTD SVG 1.1//EN" "http://www.w3.org/Graphics/SVG/1.1/DTD/svg11.dtd"><svg width="100%" height="100%" viewBox="0 0 2225 758" version="1.1" xmlns="http://www.w3.org/2000/svg" xmlns:xlink="http://www.w3.org/1999/xlink" xml:space="preserve" xmlns:serif="http://www.serif.com/" style="fill-rule:evenodd;clip-rule:evenodd;stroke-linejoin:round;stroke-miterlimit:2;"><rect id="Mesa-de-trabajo1" serif:id="Mesa de trabajo1" x="0" y="0" width="2224.957" height="757.774" style="fill:none;"/><g><path d="M484.954,545.206c0,0 50.051,67.03 -164.471,126.718c0,0 -11.172,-3.217 6.638,34.747c18.069,38.517 9.277,35.563 42.396,23.999c37.603,-13.13 190.464,-57.582 191.982,-171.815c1.518,-114.232 -78.134,-28.199 -76.544,-13.65Z" style="fill:#77cabd;"/><g><path d="M850.818,668.038c-30.655,0 -57.915,-4.171 -81.779,-12.514c-23.864,-8.343 -44.916,-23.185 -63.154,-44.528l48.893,-57.624c14.357,16.298 29.297,27.357 44.819,33.177c15.522,5.821 32.789,8.731 51.803,8.731c13.969,0 26.969,-3.492 38.998,-10.477c12.029,-6.985 21.633,-16.783 28.812,-29.394c7.179,-12.611 10.768,-26.872 10.768,-42.781l0,-13.387c-8.149,13.969 -19.305,25.223 -33.468,33.759c-14.163,8.537 -33.468,12.805 -57.915,12.805c-27.551,0 -52.482,-6.985 -74.795,-20.954c-22.312,-13.969 -39.871,-32.692 -52.676,-56.169c-12.805,-23.476 -19.208,-49.766 -19.208,-78.869c0,-29.103 6.403,-55.49 19.208,-79.16c12.805,-23.67 30.364,-42.393 52.676,-56.169c22.312,-13.775 47.244,-20.663 74.795,-20.663c25.223,0 44.916,4.462 59.079,13.387c14.163,8.925 25.32,20.76 33.468,35.506l0,-41.326l77.414,0l0,275.897c0,31.043 -6.694,57.818 -20.081,80.324c-13.387,22.506 -31.916,39.871 -55.587,52.094c-23.67,12.223 -51.027,18.335 -82.07,18.335Zm0.582,-193.826c25.999,0 46.177,-8.149 60.534,-24.447c14.357,-16.298 21.536,-36.282 21.536,-59.952c0,-23.67 -7.179,-43.655 -21.536,-59.952c-14.357,-16.298 -34.536,-24.447 -60.534,-24.447c-25.611,0 -45.498,8.149 -59.661,24.447c-14.163,16.298 -21.245,36.282 -21.245,59.952c0,15.134 3.201,29.103 9.604,41.908c6.403,12.805 15.619,23.088 27.648,30.849c12.029,7.761 26.581,11.641 43.655,11.641Z" style="fill:#1d3463;fill-rule:nonzero;"/><path d="M1055.121,544.059l0,-302.671l76.25,0l0,57.624c5.045,-21.73 15.328,-38.319 30.849,-49.766c15.522,-11.447 36.476,-16.395 62.863,-14.843l0,73.922l-11.059,0c-22.506,0 -41.52,7.179 -57.042,21.536c-15.522,14.357 -23.282,34.148 -23.282,59.37l0,154.828l-78.578,0Z" style="fill:#1d3463;fill-rule:nonzero;"/><path d="M1381.657,551.626c-31.043,0 -58.4,-7.179 -82.07,-21.536c-23.67,-14.357 -42.005,-33.468 -55.005,-57.333c-12.999,-23.864 -19.499,-50.348 -19.499,-79.451c0,-29.103 6.791,-55.781 20.372,-80.033c13.581,-24.253 32.11,-43.558 55.587,-57.915c23.476,-14.357 50.348,-21.536 80.615,-21.536c30.267,0 56.945,7.179 80.033,21.536c23.088,14.357 41.132,33.662 54.132,57.915c12.999,24.253 19.499,50.93 19.499,80.033c0,4.268 -0.194,8.731 -0.582,13.387c-0.388,4.656 -0.97,9.507 -1.746,14.552l-226.421,0c4.268,17.85 12.902,32.401 25.902,43.655c12.999,11.253 29.394,16.88 49.184,16.88c17.074,0 31.916,-3.88 44.528,-11.641c12.611,-7.761 22.409,-17.462 29.394,-29.103l61.116,45.983c-12.029,19.014 -30.073,34.536 -54.132,46.565c-24.058,12.029 -51.027,18.044 -80.906,18.044Zm-1.164,-250.286c-18.626,0 -34.536,5.627 -47.729,16.88c-13.193,11.253 -26.193,44.237 -26.193,44.237l149.589,0c-4.268,-16.686 -13.096,-31.043 -26.484,-43.072c-13.387,-12.029 -29.782,-18.044 -49.184,-18.044Z" style="fill:#1d3463;fill-rule:nonzero;"/><path d="M1569.662,544.059l0,-424.904l78.578,0l0,244.465l113.502,-122.233l111.756,0l-142.605,140.859l143.187,161.813l-104.189,0l-121.651,-143.769l0,143.769l-78.578,0Z" style="fill:#1d3463;fill-rule:nonzero;"/><path d="M2010.282,544.059c-29.879,0 -52.773,-7.373 -68.683,-22.118c-15.91,-14.746 -23.864,-38.61 -23.864,-71.593l0,-142.023l-42.49,0l0,-66.937l42.49,0l0,-61.116l78.578,-8.149l0,69.265l64.027,0l0,66.937l-64.027,0l0,137.948c0,18.626 8.149,27.939 24.447,27.939l32.595,0l0,69.847l-43.072,0Z" style="fill:#1d3463;fill-rule:nonzero;"/></g><path d="M225.618,171.329l-16.966,-27c-2.601,-4.139 -8.071,-5.388 -12.21,-2.787l-27.68,17.386c-4.141,2.609 -5.388,8.071 -2.787,12.21l20.587,32.751l42.678,-26.817l-3.613,-5.75l-0.01,0.006" style="fill:#1d3463;fill-rule:nonzero;"/><path d="M664.502,680.203l-111.021,-176.671l-59.425,-13.562c-1.633,1.667 -3.172,3.406 -4.907,4.999c-5.749,5.28 -11.961,10.175 -18.807,14.477c-60.884,38.25 -141.246,19.91 -179.506,-40.968c-22.838,-36.346 -25.37,-79.574 -10.866,-116.689c1.638,-4.213 3.511,-8.338 5.581,-12.368c0.048,-0.099 0.098,-0.206 0.154,-0.303c1.961,-3.809 4.15,-7.507 6.49,-11.119c0.221,-0.339 0.416,-0.675 0.638,-1.014c2.244,-3.381 4.689,-6.639 7.253,-9.828c0.373,-0.448 0.693,-0.925 1.066,-1.373c2.916,-3.506 6.032,-6.891 9.355,-10.102c6.385,-6.176 13.483,-11.8 21.297,-16.71c6.838,-4.304 13.946,-7.785 21.197,-10.674c17.241,-6.872 35.35,-9.873 53.203,-9.158c41.432,1.67 81.373,23.031 105.106,60.799c5.612,8.931 9.904,18.305 13.125,27.883l58.516,13.355c-3.698,-24.141 -12.161,-47.939 -25.988,-69.932c-40.175,-63.946 -113.204,-94.618 -183.4,-84.05l-121.61,-193.533c-2.644,-4.209 -8.194,-5.475 -12.411,-2.833l-27.021,16.986c-4.209,2.644 -5.477,8.203 -2.833,12.411l114.322,181.935c-7.095,3.28 -14.11,6.875 -20.899,11.148c-7.763,4.871 -14.861,10.385 -21.63,16.169l-20.877,-33.224l0.01,-0.006l-22.638,-36.037l-42.674,26.801l23.769,37.827c-0.002,0.008 -0.01,0.006 -0.012,0.014l27.73,44.13c-37.793,58.287 -41.01,135.492 -1.616,198.185c54.1,86.097 167.755,112.036 253.852,57.935c6.805,-4.269 13.079,-9.032 19.113,-14.001l104.098,165.664c2.636,4.207 8.194,5.475 12.403,2.831l27.029,-16.984c4.209,-2.644 5.477,-8.203 2.833,-12.411" style="fill:#77cabd;fill-rule:nonzero;"/><path d="M463.634,413.341c-7.839,34.346 -42.029,55.823 -76.366,47.986c-34.346,-7.839 -55.832,-42.022 -47.994,-76.368c7.839,-34.346 42.029,-55.823 76.374,-47.984c34.338,7.837 55.824,42.021 47.986,76.366" style="fill:#1d3463;fill-rule:nonzero;"/></g></svg>