<?xml version="1.0" encoding="UTF-8" standalone="no"?><!DOCTYPE svg PUBLIC "-//W3C//DTD SVG 1.1//EN" "http://www.w3.org/Graphics/SVG/1.1/DTD/svg11.dtd"><svg width="100%" height="100%" viewBox="0 0 253 253" version="1.1" xmlns="http://www.w3.org/2000/svg" xmlns:xlink="http://www.w3.org/1999/xlink" xml:space="preserve" xmlns:serif="http://www.serif.com/" style="fill-rule:evenodd;clip-rule:evenodd;stroke-linejoin:round;stroke-miterlimit:2;"><rect id="Mesa-de-trabajo1" serif:id="Mesa de trabajo1" x="0" y="0" width="252.586" height="252.586" style="fill:none;"/><g><path d="M148.346,179.535c0,0 16.022,21.457 -52.65,40.565c0,0 -3.576,-1.03 2.125,11.123c5.784,12.33 2.97,11.384 13.572,7.682c12.037,-4.203 60.971,-18.433 61.457,-55.001c0.486,-36.568 -25.012,-9.027 -24.503,-4.37Z" style="fill:#fff;"/><path d="M65.849,61.022l-5.431,-8.643c-0.833,-1.325 -2.584,-1.725 -3.909,-0.892l-8.861,5.566c-1.326,0.835 -1.725,2.584 -0.892,3.909l6.59,10.484l13.662,-8.585l-1.157,-1.841l-0.003,0.002" style="fill:#fff;fill-rule:nonzero;"/><path d="M205.823,222.75l-35.54,-56.556l-19.023,-4.342c-0.523,0.534 -1.015,1.09 -1.571,1.6c-1.84,1.69 -3.829,3.257 -6.021,4.634c-19.49,12.245 -45.215,6.373 -57.463,-13.115c-7.311,-11.635 -8.121,-25.473 -3.478,-37.354c0.524,-1.349 1.124,-2.669 1.787,-3.959c0.015,-0.032 0.031,-0.066 0.049,-0.097c0.628,-1.219 1.329,-2.403 2.077,-3.56c0.071,-0.108 0.133,-0.216 0.204,-0.325c0.718,-1.082 1.501,-2.125 2.322,-3.146c0.119,-0.143 0.222,-0.296 0.341,-0.439c0.933,-1.122 1.931,-2.206 2.995,-3.234c2.044,-1.977 4.316,-3.777 6.818,-5.349c2.189,-1.378 4.464,-2.492 6.786,-3.417c5.519,-2.2 11.316,-3.16 17.031,-2.932c13.263,0.535 26.049,7.373 33.646,19.463c1.796,2.859 3.17,5.86 4.202,8.926l18.732,4.275c-1.184,-7.728 -3.893,-15.346 -8.319,-22.387c-12.861,-20.47 -36.239,-30.289 -58.71,-26.906l-38.93,-61.954c-0.847,-1.347 -2.623,-1.753 -3.973,-0.907l-8.65,5.438c-1.347,0.847 -1.753,2.626 -0.907,3.973l36.597,58.241c-2.271,1.05 -4.517,2.201 -6.69,3.569c-2.485,1.559 -4.757,3.325 -6.924,5.176l-6.683,-10.636l0.003,-0.002l-7.247,-11.536l-13.661,8.58l7.609,12.109c-0.001,0.003 -0.003,0.002 -0.004,0.005l8.877,14.127c-12.098,18.659 -13.128,43.373 -0.517,63.443c17.319,27.561 53.701,35.865 81.263,18.546c2.178,-1.367 4.187,-2.891 6.119,-4.482l33.324,53.032c0.844,1.347 2.623,1.753 3.97,0.906l8.653,-5.437c1.347,-0.847 1.753,-2.626 0.907,-3.973" style="fill:#fff;fill-rule:nonzero;"/><path d="M141.521,137.323c-2.509,10.995 -13.454,17.87 -24.446,15.361c-10.995,-2.509 -17.873,-13.452 -15.364,-24.447c2.509,-10.995 13.454,-17.87 24.449,-15.361c10.992,2.509 17.87,13.452 15.361,24.446" style="fill:#fff;fill-rule:nonzero;"/></g></svg>